<svg width="39" height="161" viewBox="0 0 39 161" fill="none" xmlns="http://www.w3.org/2000/svg">
<path d="M19.0339 0.448242C20.3371 0.448288 21.3613 1.56388 21.2497 2.8623L19.9167 18.3623H18.1511L16.8181 2.8623C16.7064 1.56385 17.7306 0.448242 19.0339 0.448242Z" stroke="#C97DFF" stroke-width="0.895709"/>
<path d="M22.6541 21.271C22.9606 21.2059 23.2416 21.44 23.2419 21.73V28.3687C23.2417 28.6587 22.9606 28.8927 22.6541 28.8276C21.7039 28.6259 20.3018 28.3726 19.2117 28.3726C18.1215 28.3726 16.7195 28.6259 15.7693 28.8276C15.4627 28.8927 15.1817 28.6587 15.1814 28.3687V21.73C15.1817 21.44 15.4627 21.2059 15.7693 21.271C16.7195 21.4727 18.1215 21.7261 19.2117 21.7261C20.3018 21.7261 21.7039 21.4727 22.6541 21.271Z" fill="#14081A" stroke="#C97DFF" stroke-width="0.895709"/>
<circle cx="19.0338" cy="47.9205" r="15.227" fill="#14081A" stroke="#C97DFF" stroke-width="0.895709"/>
<circle cx="19.0338" cy="47.9207" r="14.1074" stroke="#C97DFF" stroke-width="0.447854"/>
<path d="M28.7779 38.8523C28.7779 38.8523 25.083 38.579 22.5083 40.6781L19.5828 48.2456L27.0976 45.1106C28.8501 42.455 28.7779 38.8523 28.7779 38.8523Z" fill="#C97DFF" stroke="#14081A" stroke-width="0.671781" stroke-miterlimit="10"/>
<path d="M9.96564 38.8411C9.96564 38.8411 9.69226 42.536 11.7914 45.1106L17.7914 48.2456L19.3589 48.2456L17.7914 42.1996L16.2239 40.5214C13.5683 38.7688 9.96564 38.8411 9.96564 38.8411Z" fill="#C97DFF" stroke="#14081A" stroke-width="0.671781" stroke-miterlimit="10"/>
<path d="M9.95439 56.9792C9.95439 56.9792 13.6493 57.2526 16.2239 55.1535L19.135 47.5859L11.6347 50.7209C9.88212 53.3765 9.95439 56.9792 9.95439 56.9792Z" fill="#C97DFF" stroke="#14081A" stroke-width="0.671781" stroke-miterlimit="10"/>
<path d="M28.7522 57.6503C28.7522 57.6503 29.0256 53.9554 26.9264 51.3808L19.5828 48.4697L22.4939 55.97C25.1495 57.7226 28.7522 57.6503 28.7522 57.6503Z" fill="#C97DFF" stroke="#14081A" stroke-width="0.671781" stroke-miterlimit="10"/>
<path d="M19.3589 35.2578C19.3589 35.2578 22.4939 38.1663 22.4939 41.7517C22.4939 45.3371 19.3589 48.2456 19.3589 48.2456C19.3589 48.2456 16.2239 45.3371 16.2239 41.7517C16.2239 38.1663 19.3589 35.2578 19.3589 35.2578Z" fill="#C97DFF" stroke="#14081A" stroke-width="0.671781" stroke-miterlimit="10"/>
<path d="M22.4939 54.7395C22.4939 58.3249 19.3589 61.2334 19.3589 61.2334C19.3589 61.2334 16.2239 58.3249 16.2239 54.7395C16.2239 51.1541 19.3589 48.2456 19.3589 48.2456C19.3589 48.2456 22.4939 51.1541 22.4939 54.7395Z" fill="#C97DFF" stroke="#14081A" stroke-width="0.671781" stroke-miterlimit="10"/>
<path d="M25.8528 51.3808C22.2674 51.3808 19.3589 48.2458 19.3589 48.2458C19.3589 48.2458 22.2674 45.1108 25.8528 45.1108C29.4381 45.1108 32.3467 48.2458 32.3467 48.2458C32.3467 48.2458 29.4381 51.3808 25.8528 51.3808Z" fill="#C97DFF" stroke="#14081A" stroke-width="0.671781" stroke-miterlimit="10"/>
<path d="M12.865 51.3808C9.27967 51.3808 6.37114 48.2458 6.37114 48.2458C6.37114 48.2458 9.27967 45.1108 12.865 45.1108C16.4504 45.1108 19.3589 48.2458 19.3589 48.2458C19.3589 48.2458 16.4504 51.3808 12.865 51.3808Z" fill="#C97DFF" stroke="#14081A" stroke-width="0.671781" stroke-miterlimit="10"/>
<path d="M19.0338 65.8345V79.2701" stroke="#C97DFF" stroke-width="0.895709" stroke-linecap="round"/>
<path d="M25.9473 81.5093H12.1203C11.5061 81.5093 10.9346 81.824 10.6063 82.3432L3.63626 93.3647C3.45508 93.6512 3.3589 93.9833 3.3589 94.3222V158.092C3.3589 159.082 4.16095 159.884 5.15032 159.884H32.9173C33.9067 159.884 34.7087 159.082 34.7087 158.092V94.3222C34.7087 93.9833 34.6125 93.6512 34.4313 93.3647L27.4613 82.3432C27.133 81.824 26.5615 81.5093 25.9473 81.5093Z" fill="#14081A" stroke="#C97DFF" stroke-width="0.895709"/>
<path d="M31.7976 157.644L32.9173 159.884H5.15032L6.26995 157.421L31.7976 157.644ZM32.9173 156.525L33.1412 94.4971C33.1412 94.4124 32.9626 94.1208 32.9173 94.0492L26.4234 83.7485C26.3413 83.6188 25.9052 83.3007 25.7516 83.3007H12.6864C12.5328 83.3007 12.088 83.5877 12.0059 83.7175L5.59817 94.0492C5.5529 94.1208 5.37427 94.4123 5.37425 94.4971L5.59817 156.077C5.59817 156.324 6.02261 157.421 6.26995 157.421L5.15032 159.884L5.05804 159.882C4.11155 159.834 3.3589 159.051 3.3589 158.092V94.3221C3.35893 93.9832 3.45504 93.6512 3.63619 93.3647L10.6064 82.3433C10.9142 81.8565 11.4357 81.5492 12.0059 81.5128L12.1205 81.5093H25.9471C26.5614 81.5093 27.1329 81.8241 27.4612 82.3433L34.4314 93.3647C34.6126 93.6512 34.7087 93.9832 34.7087 94.3221V158.092L34.7065 158.185C34.6585 159.131 33.8757 159.884 32.9173 159.884L31.7976 157.644C32.045 157.644 32.9173 156.772 32.9173 156.525Z" fill="#C97DFF"/>
<path d="M25.3718 82.8896H13.346C12.733 82.8896 12.1625 83.2031 11.8338 83.7206L5.75466 93.2918C5.57227 93.579 5.47542 93.9121 5.47542 94.2523V155.442C5.47542 156.431 6.27746 157.233 7.26683 157.233H31.451C32.4403 157.233 33.2424 156.431 33.2424 155.442V94.2523C33.2424 93.9121 33.1455 93.579 32.9631 93.2918L26.884 83.7206C26.5553 83.2031 25.9848 82.8896 25.3718 82.8896Z" stroke="#C97DFF" stroke-width="0.447854"/>
<circle cx="19.3589" cy="88.2271" r="1.79142" stroke="#C97DFF" stroke-width="0.895709"/>
<path d="M4.03068 159.436L5.82209 157.42" stroke="#14081A" stroke-width="0.447854" stroke-linecap="round"/>
<path d="M3.3589 93.6016L5.15032 94.2733" stroke="#14081A" stroke-width="0.447854" stroke-linecap="round"/>
<path d="M34.7583 93.6016L32.9669 94.2733" stroke="#14081A" stroke-width="0.447854" stroke-linecap="round"/>
<path d="M34.2109 159.086L32.5396 157.196" stroke="#14081A" stroke-width="0.447854" stroke-linecap="round"/>
<path d="M11.1964 81.5091L12.316 83.5245" stroke="#14081A" stroke-width="0.447854" stroke-linecap="round"/>
<path d="M26.8713 81.7333L25.9308 83.4351" stroke="#14081A" stroke-width="0.447854" stroke-linecap="round"/>
<path d="M17.6871 136.036L17.6871 136.681L8.14782 136.681L8.14782 136.036L12.5413 136.036L12.5413 130.487L8.14782 130.487L8.14782 129.842L17.6871 129.842L17.6871 130.487L13.1324 130.487L13.1324 136.036L17.6871 136.036ZM17.6199 126.571C17.7633 126.715 17.8349 126.885 17.8349 127.082C17.8349 127.279 17.7633 127.454 17.6199 127.606C17.4766 127.749 17.3064 127.821 17.1094 127.821C16.9034 127.821 16.7287 127.749 16.5854 127.606C16.4421 127.462 16.3704 127.288 16.3704 127.082C16.3704 126.876 16.4421 126.701 16.5854 126.558C16.7287 126.414 16.9034 126.343 17.1094 126.343C17.3064 126.343 17.4766 126.419 17.6199 126.571ZM9.37046 117.783C10.293 116.941 11.4754 116.52 12.9175 116.52C14.3596 116.52 15.5419 116.941 16.4645 117.783C17.3871 118.625 17.8483 119.709 17.8483 121.035C17.8483 122.36 17.3871 123.444 16.4645 124.286C15.5419 125.119 14.3596 125.536 12.9175 125.536C11.4754 125.536 10.293 125.115 9.37046 124.273C8.44788 123.431 7.98659 122.351 7.98659 121.035C7.98659 119.709 8.44788 118.625 9.37046 117.783ZM16.0345 118.254C15.2284 117.537 14.1894 117.179 12.9175 117.179C11.6456 117.179 10.611 117.537 9.81384 118.254C9.0077 118.97 8.60463 119.897 8.60463 121.035C8.60463 122.163 9.0077 123.086 9.81384 123.802C10.611 124.519 11.6456 124.877 12.9175 124.877C14.1894 124.877 15.2284 124.519 16.0345 123.802C16.8317 123.086 17.2303 122.163 17.2303 121.035C17.2303 119.897 16.8317 118.97 16.0345 118.254ZM17.6199 114.467C17.7633 114.61 17.8349 114.781 17.8349 114.978C17.8349 115.175 17.7633 115.349 17.6199 115.502C17.4766 115.645 17.3064 115.717 17.1094 115.717C16.9034 115.717 16.7287 115.645 16.5854 115.502C16.4421 115.358 16.3704 115.184 16.3704 114.978C16.3704 114.772 16.4421 114.597 16.5854 114.454C16.7287 114.31 16.9034 114.239 17.1094 114.239C17.3064 114.239 17.4766 114.315 17.6199 114.467ZM8.73899 114.374L8.14782 114.374L8.14782 107.737L8.73899 107.737L8.73899 110.733L17.6871 110.733L17.6871 111.378L8.73899 111.378L8.73899 114.374Z" fill="#C97DFF"/>
<path d="M31.8507 138.559L31.8507 139.073L22.2726 139.073L22.2726 138.559L31.8507 138.559ZM31.3259 140.439L31.3259 140.953L26.5915 140.953L26.5915 142.5C27.2038 142.515 27.7377 142.61 28.1933 142.785C28.6489 142.956 29.0006 143.193 29.2485 143.495C29.4963 143.794 29.6202 144.139 29.6202 144.529C29.6202 144.933 29.489 145.29 29.2266 145.6C28.9605 145.906 28.5851 146.143 28.1004 146.311C27.612 146.479 27.0434 146.562 26.3947 146.562C25.7459 146.562 25.1792 146.479 24.6945 146.311C24.2061 146.143 23.8307 145.906 23.5683 145.6C23.3022 145.29 23.1692 144.933 23.1692 144.529C23.1692 144.142 23.2895 143.802 23.53 143.506C23.7705 143.208 24.115 142.971 24.5633 142.796C25.0079 142.621 25.5309 142.522 26.1323 142.5L26.1323 140.953L22.5131 140.953L22.5131 140.439L31.3259 140.439ZM23.6393 144.529C23.6393 144.835 23.756 145.105 23.9892 145.338C24.2225 145.571 24.5487 145.752 24.9678 145.879C25.3833 146.003 25.8589 146.063 26.3947 146.059C26.9268 146.063 27.4024 146.003 27.8216 145.879C28.2371 145.752 28.5614 145.571 28.7947 145.338C29.028 145.105 29.1428 144.835 29.1391 144.529C29.1428 144.223 29.028 143.953 28.7947 143.72C28.5614 143.486 28.2371 143.306 27.8216 143.178C27.4024 143.051 26.9268 142.987 26.3947 142.987C25.8589 142.987 25.3833 143.051 24.9678 143.178C24.5487 143.306 24.2225 143.486 23.9892 143.72C23.756 143.953 23.6393 144.223 23.6393 144.529ZM31.8617 129.098L31.8617 129.623L22.2726 129.623L22.2726 129.098L31.8617 129.098ZM23.0598 134.117C23.0598 133.654 23.1965 133.242 23.4699 132.881C23.7396 132.521 24.1241 132.238 24.6234 132.034C25.1191 131.83 25.6949 131.726 26.351 131.722C27.0033 131.726 27.5774 131.83 28.0731 132.034C28.5651 132.238 28.9459 132.521 29.2157 132.881C29.4854 133.242 29.6202 133.654 29.6202 134.117C29.6202 134.584 29.4854 134.999 29.2157 135.363C28.9459 135.724 28.5651 136.007 28.0731 136.211C27.5774 136.411 27.0033 136.512 26.351 136.512C25.6949 136.512 25.1191 136.411 24.6234 136.211C24.1241 136.007 23.7396 135.724 23.4699 135.363C23.1965 134.999 23.0598 134.584 23.0598 134.117ZM23.5191 134.117C23.5191 134.485 23.6412 134.813 23.8854 135.101C24.1259 135.385 24.4612 135.608 24.8913 135.768C25.3213 135.928 25.8079 136.009 26.351 136.009C26.8904 136.009 27.3751 135.928 27.8052 135.768C28.2352 135.608 28.5705 135.385 28.8111 135.101C29.0516 134.813 29.1719 134.485 29.1719 134.117C29.1719 133.753 29.0516 133.428 28.8111 133.144C28.5669 132.86 28.2316 132.637 27.8052 132.477C27.3751 132.317 26.8904 132.236 26.351 132.236C25.8079 132.236 25.3213 132.317 24.8913 132.477C24.4612 132.637 24.1259 132.86 23.8854 133.144C23.6412 133.428 23.5191 133.753 23.5191 134.117ZM31.8507 119.31L31.8507 119.835L22.2726 119.835L22.2726 119.31L31.8507 119.31ZM25.4544 123.727C26.0157 123.727 26.5569 123.601 27.0781 123.35C27.5992 123.098 28.0567 122.769 28.4503 122.36C28.8439 121.952 29.1428 121.518 29.3469 121.059L29.7623 121.376C29.5838 121.748 29.3469 122.105 29.0516 122.448C28.7528 122.79 28.4047 123.095 28.0074 123.361C27.6102 123.627 27.1856 123.829 26.7336 123.968C27.2074 124.103 27.6539 124.301 28.0731 124.564C28.4922 124.826 28.8603 125.127 29.1774 125.466C29.4945 125.805 29.7478 126.158 29.9373 126.526L29.5327 126.843C29.3177 126.395 29.0043 125.97 28.5924 125.569C28.1806 125.169 27.7013 124.846 27.1546 124.602C26.6079 124.354 26.0412 124.23 25.4544 124.23L24.4485 124.23L24.4485 126.636L24.0111 126.636L24.0111 124.241L22.4147 124.241L22.4147 123.727L24.0111 123.727L24.0111 121.354L24.4485 121.354L24.4485 123.727L25.4544 123.727ZM22.9942 112.987C22.9942 112.317 23.0945 111.723 23.2949 111.205C23.4917 110.684 23.7742 110.279 24.1423 109.991C24.5068 109.7 24.9295 109.554 25.4106 109.554C25.8735 109.554 26.2835 109.687 26.6407 109.953C26.9942 110.219 27.2731 110.593 27.4772 111.074C27.6813 111.551 27.7961 112.102 27.8216 112.725L30.0794 112.725L30.0794 108.57L30.5387 108.57L30.5387 117.339L30.0794 117.339L30.0794 113.25L27.8216 113.25C27.7961 113.873 27.6813 114.425 27.4772 114.906C27.2731 115.384 26.9942 115.755 26.6407 116.022C26.2835 116.288 25.8735 116.421 25.4106 116.421C24.9295 116.421 24.5068 116.275 24.1423 115.983C23.7742 115.692 23.4917 115.287 23.2949 114.77C23.0945 114.248 22.9942 113.654 22.9942 112.987ZM23.4316 112.987C23.4316 113.545 23.5172 114.048 23.6885 114.496C23.8562 114.945 24.0913 115.298 24.3938 115.557C24.6926 115.812 25.0316 115.94 25.4106 115.94C25.7933 115.94 26.1359 115.812 26.4384 115.557C26.7409 115.298 26.9778 114.945 27.1491 114.496C27.3168 114.048 27.4006 113.545 27.4006 112.987C27.4006 112.43 27.3168 111.927 27.1491 111.478C26.9778 111.03 26.7409 110.678 26.4384 110.423C26.1359 110.165 25.7933 110.035 25.4106 110.035C25.0316 110.035 24.6926 110.165 24.3938 110.423C24.0913 110.678 23.8562 111.03 23.6885 111.478C23.5172 111.927 23.4316 112.43 23.4316 112.987ZM28.986 105.812C28.986 104.937 28.9623 104.179 28.915 103.538C28.8676 102.896 28.7819 102.233 28.658 101.548L29.1063 101.482C29.2375 102.215 29.3268 102.926 29.3742 103.614C29.4216 104.303 29.4453 105.149 29.4453 106.151L29.4453 106.873L23.191 106.873L23.191 102.346L23.6503 102.346L23.6503 106.359L25.8917 106.359L25.8917 102.663L26.34 102.663L26.34 106.359L28.986 106.359L28.986 106.151L28.986 105.812ZM31.8507 99.7219L31.8507 100.236L22.2726 100.236L22.2726 99.7219L31.8507 99.7219Z" fill="#C97DFF"/>
</svg>
